<svg xmlns="http://www.w3.org/2000/svg" xmlns:xlink="http://www.w3.org/1999/xlink" id="processonSvg1000" viewBox="-15.111111111111132 22.5 1732.111111111111 1317.8333333333328" width="1732.111111111111" height="1317.8333333333328"><defs id="ProcessOnDefs1001"><marker id="ProcessOnMarker1007" markerUnits="userSpaceOnUse" orient="auto" markerWidth="16.23606797749979" markerHeight="10.550836550532098" viewBox="-1.0 -1.3763819204711736 16.23606797749979 10.550836550532098" refX="-1.0" refY="3.8990363547948754"><path id="ProcessOnPath1008" d="M12.0 3.8990363547948754L0.0 7.798072709589751V0.0Z" stroke="#323232" stroke-width="2.0" fill="#323232" transform="matrix(1.0,0.0,0.0,1.0,0.0,0.0)"/></marker><marker id="ProcessOnMarker1019" markerUnits="userSpaceOnUse" orient="auto" markerWidth="16.23606797749979" markerHeight="10.550836550532098" viewBox="-1.0 -1.3763819204711736 16.23606797749979 10.550836550532098" refX="-1.0" refY="3.8990363547948754"><path id="ProcessOnPath1020" d="M12.0 3.8990363547948754L0.0 7.798072709589751V0.0Z" stroke="#323232" stroke-width="2.0" fill="#323232" transform="matrix(1.0,0.0,0.0,1.0,0.0,0.0)"/></marker><marker id="ProcessOnMarker1043" markerUnits="userSpaceOnUse" orient="auto" markerWidth="16.23606797749979" markerHeight="10.550836550532098" viewBox="-1.0 -1.3763819204711736 16.23606797749979 10.550836550532098" refX="-1.0" refY="3.8990363547948754"><path id="ProcessOnPath1044" d="M12.0 3.8990363547948754L0.0 7.798072709589751V0.0Z" stroke="#323232" stroke-width="2.0" fill="#323232" transform="matrix(1.0,0.0,0.0,1.0,0.0,0.0)"/></marker><marker id="ProcessOnMarker1047" markerUnits="userSpaceOnUse" orient="auto" markerWidth="16.23606797749979" markerHeight="10.550836550532098" viewBox="-1.0 -1.3763819204711736 16.23606797749979 10.550836550532098" refX="-1.0" refY="3.8990363547948754"><path id="ProcessOnPath1048" d="M12.0 3.8990363547948754L0.0 7.798072709589751V0.0Z" stroke="#323232" stroke-width="2.0" fill="#323232" transform="matrix(1.0,0.0,0.0,1.0,0.0,0.0)"/></marker><marker id="ProcessOnMarker1051" markerUnits="userSpaceOnUse" orient="auto" markerWidth="16.23606797749979" markerHeight="10.550836550532098" viewBox="-1.0 -1.3763819204711736 16.23606797749979 10.550836550532098" refX="-1.0" refY="3.8990363547948754"><path id="ProcessOnPath1052" d="M12.0 3.8990363547948754L0.0 7.798072709589751V0.0Z" stroke="#323232" stroke-width="2.0" fill="#323232" transform="matrix(1.0,0.0,0.0,1.0,0.0,0.0)"/></marker><marker id="ProcessOnMarker1055" markerUnits="userSpaceOnUse" orient="auto" markerWidth="16.23606797749979" markerHeight="10.550836550532098" viewBox="-1.0 -1.3763819204711736 16.23606797749979 10.550836550532098" refX="-1.0" refY="3.8990363547948754"><path id="ProcessOnPath1056" d="M12.0 3.8990363547948754L0.0 7.798072709589751V0.0Z" stroke="#323232" stroke-width="2.0" fill="#323232" transform="matrix(1.0,0.0,0.0,1.0,0.0,0.0)"/></marker><marker id="ProcessOnMarker1071" markerUnits="userSpaceOnUse" orient="auto" markerWidth="16.23606797749979" markerHeight="10.550836550532098" viewBox="-1.0 -1.3763819204711736 16.23606797749979 10.550836550532098" refX="-1.0" refY="3.8990363547948754"><path id="ProcessOnPath1072" d="M12.0 3.8990363547948754L0.0 7.798072709589751V0.0Z" stroke="#323232" stroke-width="2.0" fill="#323232" transform="matrix(1.0,0.0,0.0,1.0,0.0,0.0)"/></marker><marker id="ProcessOnMarker1075" markerUnits="userSpaceOnUse" orient="auto" markerWidth="16.23606797749979" markerHeight="10.550836550532098" viewBox="-1.0 -1.3763819204711736 16.23606797749979 10.550836550532098" refX="-1.0" refY="3.8990363547948754"><path id="ProcessOnPath1076" d="M12.0 3.8990363547948754L0.0 7.798072709589751V0.0Z" stroke="#323232" stroke-width="2.0" fill="#323232" transform="matrix(1.0,0.0,0.0,1.0,0.0,0.0)"/></marker><marker id="ProcessOnMarker1087" markerUnits="userSpaceOnUse" orient="auto" markerWidth="16.23606797749979" markerHeight="10.550836550532098" viewBox="-1.0 -1.3763819204711736 16.23606797749979 10.550836550532098" refX="-1.0" refY="3.8990363547948754"><path id="ProcessOnPath1088" d="M12.0 3.8990363547948754L0.0 7.798072709589751V0.0Z" stroke="#323232" stroke-width="2.0" fill="#323232" transform="matrix(1.0,0.0,0.0,1.0,0.0,0.0)"/></marker><marker id="ProcessOnMarker1107" markerUnits="userSpaceOnUse" orient="auto" markerWidth="16.23606797749979" markerHeight="10.550836550532098" viewBox="-1.0 -1.3763819204711736 16.23606797749979 10.550836550532098" refX="-1.0" refY="3.8990363547948754"><path id="ProcessOnPath1108" d="M12.0 3.8990363547948754L0.0 7.798072709589751V0.0Z" stroke="#323232" stroke-width="2.0" fill="#323232" transform="matrix(1.0,0.0,0.0,1.0,0.0,0.0)"/></marker><marker id="ProcessOnMarker1111" markerUnits="userSpaceOnUse" orient="auto" markerWidth="16.23606797749979" markerHeight="10.550836550532098" viewBox="-1.0 -1.3763819204711736 16.23606797749979 10.550836550532098" refX="-1.0" refY="3.8990363547948754"><path id="ProcessOnPath1112" d="M12.0 3.8990363547948754L0.0 7.798072709589751V0.0Z" stroke="#323232" stroke-width="2.0" fill="#323232" transform="matrix(1.0,0.0,0.0,1.0,0.0,0.0)"/></marker><marker id="ProcessOnMarker1115" markerUnits="userSpaceOnUse" orient="auto" markerWidth="16.23606797749979" markerHeight="10.550836550532098" viewBox="-1.0 -1.3763819204711736 16.23606797749979 10.550836550532098" refX="-1.0" refY="3.8990363547948754"><path id="ProcessOnPath1116" d="M12.0 3.8990363547948754L0.0 7.798072709589751V0.0Z" stroke="#323232" stroke-width="2.0" fill="#323232" transform="matrix(1.0,0.0,0.0,1.0,0.0,0.0)"/></marker><marker id="ProcessOnMarker1119" markerUnits="userSpaceOnUse" orient="auto" markerWidth="16.23606797749979" markerHeight="10.550836550532098" viewBox="-1.0 -1.3763819204711736 16.23606797749979 10.550836550532098" refX="-1.0" refY="3.8990363547948754"><path id="ProcessOnPath1120" d="M12.0 3.8990363547948754L0.0 7.798072709589751V0.0Z" stroke="#323232" stroke-width="2.0" fill="#323232" transform="matrix(1.0,0.0,0.0,1.0,0.0,0.0)"/></marker><marker id="ProcessOnMarker1127" markerUnits="userSpaceOnUse" orient="auto" markerWidth="16.23606797749979" markerHeight="10.550836550532098" viewBox="-1.0 -1.3763819204711736 16.23606797749979 10.550836550532098" refX="-1.0" refY="3.8990363547948754"><path id="ProcessOnPath1128" d="M12.0 3.8990363547948754L0.0 7.798072709589751V0.0Z" stroke="#323232" stroke-width="2.0" fill="#323232" transform="matrix(1.0,0.0,0.0,1.0,0.0,0.0)"/></marker><marker id="ProcessOnMarker1146" markerUnits="userSpaceOnUse" orient="auto" markerWidth="16.23606797749979" markerHeight="10.550836550532098" viewBox="-1.0 -1.3763819204711736 16.23606797749979 10.550836550532098" refX="-1.0" refY="3.8990363547948754"><path id="ProcessOnPath1147" d="M12.0 3.8990363547948754L0.0 7.798072709589751V0.0Z" stroke="#323232" stroke-width="2.0" fill="#323232" transform="matrix(1.0,0.0,0.0,1.0,0.0,0.0)"/></marker><marker id="ProcessOnMarker1155" markerUnits="userSpaceOnUse" orient="auto" markerWidth="16.23606797749979" markerHeight="10.550836550532098" viewBox="-1.0 -1.3763819204711736 16.23606797749979 10.550836550532098" refX="-1.0" refY="3.8990363547948754"><path id="ProcessOnPath1156" d="M12.0 3.8990363547948754L0.0 7.798072709589751V0.0Z" stroke="#323232" stroke-width="2.0" fill="#323232" transform="matrix(1.0,0.0,0.0,1.0,0.0,0.0)"/></marker><marker id="ProcessOnMarker1162" markerUnits="userSpaceOnUse" orient="auto" markerWidth="16.23606797749979" markerHeight="10.550836550532098" viewBox="-1.0 -1.3763819204711736 16.23606797749979 10.550836550532098" refX="-1.0" refY="3.8990363547948754"><path id="ProcessOnPath1163" d="M12.0 3.8990363547948754L0.0 7.798072709589751V0.0Z" stroke="#323232" stroke-width="2.0" fill="#323232" transform="matrix(1.0,0.0,0.0,1.0,0.0,0.0)"/></marker><marker id="ProcessOnMarker1169" markerUnits="userSpaceOnUse" orient="auto" markerWidth="16.23606797749979" markerHeight="10.550836550532098" viewBox="-1.0 -1.3763819204711736 16.23606797749979 10.550836550532098" refX="-1.0" refY="3.8990363547948754"><path id="ProcessOnPath1170" d="M12.0 3.8990363547948754L0.0 7.798072709589751V0.0Z" stroke="#323232" stroke-width="2.0" fill="#323232" transform="matrix(1.0,0.0,0.0,1.0,0.0,0.0)"/></marker><marker id="ProcessOnMarker1173" markerUnits="userSpaceOnUse" orient="auto" markerWidth="16.23606797749979" markerHeight="10.550836550532098" viewBox="-1.0 -1.3763819204711736 16.23606797749979 10.550836550532098" refX="-1.0" refY="3.8990363547948754"><path id="ProcessOnPath1174" d="M12.0 3.8990363547948754L0.0 7.798072709589751V0.0Z" stroke="#323232" stroke-width="2.0" fill="#323232" transform="matrix(1.0,0.0,0.0,1.0,0.0,0.0)"/></marker><marker id="ProcessOnMarker1181" markerUnits="userSpaceOnUse" orient="auto" markerWidth="16.23606797749979" markerHeight="10.550836550532098" viewBox="-1.0 -1.3763819204711736 16.23606797749979 10.550836550532098" refX="-1.0" refY="3.8990363547948754"><path id="ProcessOnPath1182" d="M12.0 3.8990363547948754L0.0 7.798072709589751V0.0Z" stroke="#323232" stroke-width="2.0" fill="#323232" transform="matrix(1.0,0.0,0.0,1.0,0.0,0.0)"/></marker><marker id="ProcessOnMarker1197" markerUnits="userSpaceOnUse" orient="auto" markerWidth="16.23606797749979" markerHeight="10.550836550532098" viewBox="-1.0 -1.3763819204711736 16.23606797749979 10.550836550532098" refX="-1.0" refY="3.8990363547948754"><path id="ProcessOnPath1198" d="M12.0 3.8990363547948754L0.0 7.798072709589751V0.0Z" stroke="#323232" stroke-width="2.0" fill="#323232" transform="matrix(1.0,0.0,0.0,1.0,0.0,0.0)"/></marker><marker id="ProcessOnMarker1204" markerUnits="userSpaceOnUse" orient="auto" markerWidth="16.23606797749979" markerHeight="10.550836550532098" viewBox="-1.0 -1.3763819204711736 16.23606797749979 10.550836550532098" refX="-1.0" refY="3.8990363547948754"><path id="ProcessOnPath1205" d="M12.0 3.8990363547948754L0.0 7.798072709589751V0.0Z" stroke="#323232" stroke-width="2.0" fill="#323232" transform="matrix(1.0,0.0,0.0,1.0,0.0,0.0)"/></marker><marker id="ProcessOnMarker1214" markerUnits="userSpaceOnUse" orient="auto" markerWidth="16.23606797749979" markerHeight="10.550836550532098" viewBox="-1.0 -1.3763819204711736 16.23606797749979 10.550836550532098" refX="-1.0" refY="3.8990363547948754"><path id="ProcessOnPath1215" d="M12.0 3.8990363547948754L0.0 7.798072709589751V0.0Z" stroke="#323232" stroke-width="2.0" fill="#323232" transform="matrix(1.0,0.0,0.0,1.0,0.0,0.0)"/></marker><marker id="ProcessOnMarker1226" markerUnits="userSpaceOnUse" orient="auto" markerWidth="16.23606797749979" markerHeight="10.550836550532098" viewBox="-1.0 -1.3763819204711736 16.23606797749979 10.550836550532098" refX="-1.0" refY="3.8990363547948754"><path id="ProcessOnPath1227" d="M12.0 3.8990363547948754L0.0 7.798072709589751V0.0Z" stroke="#323232" stroke-width="2.0" fill="#323232" transform="matrix(1.0,0.0,0.0,1.0,0.0,0.0)"/></marker><marker id="ProcessOnMarker1230" markerUnits="userSpaceOnUse" orient="auto" markerWidth="16.23606797749979" markerHeight="10.550836550532098" viewBox="-1.0 -1.3763819204711736 16.23606797749979 10.550836550532098" refX="-1.0" refY="3.8990363547948754"><path id="ProcessOnPath1231" d="M12.0 3.8990363547948754L0.0 7.798072709589751V0.0Z" stroke="#323232" stroke-width="2.0" fill="#323232" transform="matrix(1.0,0.0,0.0,1.0,0.0,0.0)"/></marker><marker id="ProcessOnMarker1234" markerUnits="userSpaceOnUse" orient="auto" markerWidth="16.23606797749979" markerHeight="10.550836550532098" viewBox="-1.0 -1.3763819204711736 16.23606797749979 10.550836550532098" refX="-1.0" refY="3.8990363547948754"><path id="ProcessOnPath1235" d="M12.0 3.8990363547948754L0.0 7.798072709589751V0.0Z" stroke="#323232" stroke-width="2.0" fill="#323232" transform="matrix(1.0,0.0,0.0,1.0,0.0,0.0)"/></marker><marker id="ProcessOnMarker1242" markerUnits="userSpaceOnUse" orient="auto" markerWidth="16.23606797749979" markerHeight="10.550836550532098" viewBox="-1.0 -1.3763819204711736 16.23606797749979 10.550836550532098" refX="-1.0" refY="3.8990363547948754"><path id="ProcessOnPath1243" d="M12.0 3.8990363547948754L0.0 7.798072709589751V0.0Z" stroke="#323232" stroke-width="2.0" fill="#323232" transform="matrix(1.0,0.0,0.0,1.0,0.0,0.0)"/></marker><marker id="ProcessOnMarker1246" markerUnits="userSpaceOnUse" orient="auto" markerWidth="16.23606797749979" markerHeight="10.550836550532098" viewBox="-1.0 -1.3763819204711736 16.23606797749979 10.550836550532098" refX="-1.0" refY="3.8990363547948754"><path id="ProcessOnPath1247" d="M12.0 3.8990363547948754L0.0 7.798072709589751V0.0Z" stroke="#323232" stroke-width="2.0" fill="#323232" transform="matrix(1.0,0.0,0.0,1.0,0.0,0.0)"/></marker></defs><g id="ProcessOnG1002"><path id="ProcessOnPath1003" d="M-15.111111111111132 22.5H1717.0V1340.3333333333328H-15.111111111111086V22.5Z" fill="none"/><g id="ProcessOnG1004"><g id="ProcessOnG1005"><path id="ProcessOnPath1006" d="M390.33333333333337 220.33333333333331L390.33333333333337 281.16666666666674L389.82304526748976 281.16666666666674L389.82304526748976 326.76393202250034" stroke="#323232" stroke-width="2.0" stroke-dasharray="none" fill="none" marker-end="url(#ProcessOnMarker1007)"/></g><g id="ProcessOnG1009" transform="matrix(1.0,0.0,0.0,1.0,4.8888888888888715,628.6666666666665)" opacity="1.0"><path id="ProcessOnPath1010" d="M14.55555555555558 0.0L147.44444444444443 0.0C166.85185185185185 0.0 166.85185185185185 43.66666666666674 147.44444444444443 43.66666666666674L14.55555555555558 43.66666666666674C-4.85185185185186 43.66666666666674 -4.85185185185186 0.0 14.55555555555558 0.0Z" stroke="#66cc00" stroke-width="2.0" stroke-dasharray="none" opacity="1.0" fill="#80ff00"/><g id="ProcessOnG1011" transform="matrix(1.0,0.0,0.0,1.0,10.0,13.708333333333371)"><text id="ProcessOnText1012" fill="#000000" font-size="13" x="70.0" y="13.325" font-family="微软雅黑" font-weight="bold" font-style="normal" text-decoration="none" family="微软雅黑" text-anchor="middle" size="13">开始</text></g></g><g id="ProcessOnG1013" transform="matrix(1.0,0.0,0.0,1.0,285.33333333333337,182.00000000000003)" opacity="1.0"><path id="ProcessOnPath1014" d="M12.777777777777764 0.0L197.22222222222217 0.0C214.2592592592592 0.0 214.2592592592592 38.33333333333329 197.22222222222217 38.33333333333329L12.777777777777764 38.33333333333329C-4.259259259259255 38.33333333333329 -4.259259259259255 0.0 12.777777777777764 0.0Z" stroke="#66cc00" stroke-width="2.0" stroke-dasharray="none" opacity="1.0" fill="#80ff00"/><g id="ProcessOnG1015" transform="matrix(1.0,0.0,0.0,1.0,10.0,11.041666666666647)"><text id="ProcessOnText1016" fill="#000000" font-size="13" x="93.99999999999997" y="13.325" font-family="微软雅黑" font-weight="bold" font-style="normal" text-decoration="none" family="微软雅黑" text-anchor="middle" size="13">搜集门锁系统的版本号及品牌</text></g></g><g id="ProcessOnG1017"><path id="ProcessOnPath1018" d="M166.88888888888889 650.5L226.11111111111114 650.5L226.11111111111114 201.16666666666677L270.0972653558336 201.16666666666677" stroke="#323232" stroke-width="2.0" stroke-dasharray="none" fill="none" marker-end="url(#ProcessOnMarker1019)"/></g><g id="ProcessOnG1021" transform="matrix(1.0,0.0,0.0,1.0,284.8230452674898,342.0000000000001)" opacity="1.0"><path id="ProcessOnPath1022" d="M12.777777777777764 0.0L197.22222222222217 0.0C214.2592592592592 0.0 214.2592592592592 38.33333333333329 197.22222222222217 38.33333333333329L12.777777777777764 38.33333333333329C-4.259259259259255 38.33333333333329 -4.259259259259255 0.0 12.777777777777764 0.0Z" stroke="#66cc00" stroke-width="2.0" stroke-dasharray="none" opacity="1.0" fill="#80ff00"/><g id="ProcessOnG1023" transform="matrix(1.0,0.0,0.0,1.0,10.0,11.041666666666647)"><text id="ProcessOnText1024" fill="#000000" font-size="13" x="93.99999999999997" y="13.325" font-family="微软雅黑" font-weight="bold" font-style="normal" text-decoration="none" family="微软雅黑" text-anchor="middle" size="13">获取门锁接口包</text></g></g><g id="ProcessOnG1025" transform="matrix(1.0,0.0,0.0,1.0,283.99999999999983,245.33333333333331)" opacity="1.0"><path id="ProcessOnPath1026" d="M0.0 0.0L215.33333333333337 0.0L215.33333333333337 48.33333333333334L0.0 48.33333333333334Z" stroke="#323232" stroke-width="2.0" stroke-dasharray="none" opacity="1.0" fill="#ffffff"/><g id="ProcessOnG1027" transform="matrix(1.0,0.0,0.0,1.0,10.0,16.04166666666667)"><text id="ProcessOnText1028" fill="#000000" font-size="13" x="96.66666666666669" y="13.325" font-family="微软雅黑" font-weight="normal" font-style="normal" text-decoration="none" family="微软雅黑" text-anchor="middle" size="13">查阅门锁接口教程文档</text></g></g><g id="ProcessOnG1029" transform="matrix(1.0,0.0,0.0,1.0,281.20987654320976,431.0000000000008)" opacity="1.0"><path id="ProcessOnPath1030" d="M0.0 0.0L221.33333333333337 0.0L221.33333333333337 41.33333333333333L0.0 41.33333333333333Z" stroke="#323232" stroke-width="2.0" stroke-dasharray="none" opacity="1.0" fill="#ffffff"/><g id="ProcessOnG1031" transform="matrix(1.0,0.0,0.0,1.0,10.0,12.541666666666664)"><text id="ProcessOnText1032" fill="#000000" font-size="13" x="99.66666666666669" y="13.325" font-family="微软雅黑" font-weight="normal" font-style="normal" text-decoration="none" family="微软雅黑" text-anchor="middle" size="13">获取门锁商联系</text></g></g><g id="ProcessOnG1033" transform="matrix(1.0,0.0,0.0,1.0,589.9817101051666,387.2304526748998)" opacity="1.0"><path id="ProcessOnPath1034" d="M0.0 0.0L221.33333333333337 0.0L221.33333333333337 41.33333333333333L0.0 41.33333333333333Z" stroke="#323232" stroke-width="2.0" stroke-dasharray="none" opacity="1.0" fill="#ffffff"/><g id="ProcessOnG1035" transform="matrix(1.0,0.0,0.0,1.0,10.0,12.541666666666664)"><text id="ProcessOnText1036" fill="#000000" font-size="13" x="99.66666666666669" y="13.325" font-family="微软雅黑" font-weight="normal" font-style="normal" text-decoration="none" family="微软雅黑" text-anchor="middle" size="13">业主提供门锁商联系电话</text></g></g><g id="ProcessOnG1037" transform="matrix(1.0,0.0,0.0,1.0,589.3196159122084,495.00000000000125)" opacity="1.0"><path id="ProcessOnPath1038" d="M0.0 0.0L221.33333333333337 0.0L221.33333333333337 41.33333333333333L0.0 41.33333333333333Z" stroke="#323232" stroke-width="2.0" stroke-dasharray="none" opacity="1.0" fill="#ffffff"/><g id="ProcessOnG1039" transform="matrix(1.0,0.0,0.0,1.0,10.0,12.541666666666664)"><text id="ProcessOnText1040" fill="#000000" font-size="13" x="99.66666666666669" y="13.325" font-family="微软雅黑" font-weight="normal" font-style="normal" text-decoration="none" family="微软雅黑" text-anchor="middle" size="13">在门锁系统上查找锁商联系电话</text></g></g><g id="ProcessOnG1041"><path id="ProcessOnPath1042" d="M502.0 440.3333333333333L545.9908550525834 440.3333333333333L545.9908550525834 407.89711934156645L574.7456421276668 407.89711934156645" stroke="#323232" stroke-width="2.0" stroke-dasharray="none" fill="none" marker-end="url(#ProcessOnMarker1043)"/></g><g id="ProcessOnG1045"><path id="ProcessOnPath1046" d="M502.0 460.3333333333333L544.6666666666667 460.3333333333333L544.6666666666667 511.0L566.7639320225002 511.0" stroke="#323232" stroke-width="2.0" stroke-dasharray="none" fill="none" marker-end="url(#ProcessOnMarker1047)"/></g><g id="ProcessOnG1049"><path id="ProcessOnPath1050" d="M811.3150434385 407.89711934156645L843.3241883859166 407.89711934156645L843.3241883859166 445.6666666666667L860.0972653558335 445.6666666666667" stroke="#323232" stroke-width="2.0" stroke-dasharray="none" fill="none" marker-end="url(#ProcessOnMarker1051)"/></g><g id="ProcessOnG1053"><path id="ProcessOnPath1054" d="M810.6529492455418 515.6666666666679L842.3264746227709 515.6666666666679L842.3264746227709 473.66666666666674L858.7639320225002 473.66666666666674" stroke="#323232" stroke-width="2.0" stroke-dasharray="none" fill="none" marker-end="url(#ProcessOnMarker1055)"/></g><g id="ProcessOnG1057" transform="matrix(1.0,0.0,0.0,1.0,885.9999999999998,427.83950617284165)" opacity="1.0"><path id="ProcessOnPath1058" d="M0.0 0.0L238.66666666666697 0.0L238.66666666666697 67.11111111111052L0.0 67.11111111111052Z" stroke="#323232" stroke-width="2.0" stroke-dasharray="none" opacity="1.0" fill="#ffffff"/><g id="ProcessOnG1059" transform="matrix(1.0,0.0,0.0,1.0,10.0,1.0555555555552587)"><text id="ProcessOnText1060" fill="#000000" font-size="13" x="0.0" y="13.325" font-family="微软雅黑" font-weight="normal" font-style="normal" text-decoration="none" family="微软雅黑" text-anchor="start" size="13">与锁商取得沟通表达诉求，门锁系统</text><text id="ProcessOnText1061" fill="#000000" font-size="13" x="0.0" y="29.575" font-family="微软雅黑" font-weight="normal" font-style="normal" text-decoration="none" family="微软雅黑" text-anchor="start" size="13">正在对接pms，需要获得门锁接口包</text><text id="ProcessOnText1062" fill="#000000" font-size="13" x="0.0" y="45.825" font-family="微软雅黑" font-weight="normal" font-style="normal" text-decoration="none" family="微软雅黑" text-anchor="start" size="13">。要求对方将接口包发送到个人工作</text><text id="ProcessOnText1063" fill="#000000" font-size="13" x="0.0" y="62.075" font-family="微软雅黑" font-weight="normal" font-style="normal" text-decoration="none" family="微软雅黑" text-anchor="start" size="13">邮箱</text></g></g><g id="ProcessOnG1064" transform="matrix(1.0,0.0,0.0,1.0,1198.6666666666667,431.0000000000008)" opacity="1.0"><path id="ProcessOnPath1065" d="M0.0 0.0L182.0 0.0L182.0 60.79012345679223L0.0 60.79012345679223Z" stroke="#323232" stroke-width="2.0" stroke-dasharray="none" opacity="1.0" fill="#ffffff"/><g id="ProcessOnG1066" transform="matrix(1.0,0.0,0.0,1.0,10.0,14.145061728396115)"><text id="ProcessOnText1067" fill="#000000" font-size="13" x="80.0" y="13.325" font-family="微软雅黑" font-weight="normal" font-style="normal" text-decoration="none" family="微软雅黑" text-anchor="middle" size="13">收到邮件后进行转发</text><text id="ProcessOnText1068" fill="#000000" font-size="13" x="80.0" y="29.575" font-family="微软雅黑" font-weight="normal" font-style="normal" text-decoration="none" family="微软雅黑" text-anchor="middle" size="13">备注：需提交锁商联系电话</text></g></g><g id="ProcessOnG1069"><path id="ProcessOnPath1070" d="M1124.6666666666667 461.3950617283969L1161.6666666666667 461.3950617283969L1161.6666666666667 461.3950617283969L1183.430598689167 461.3950617283969" stroke="#323232" stroke-width="2.0" stroke-dasharray="none" fill="none" marker-end="url(#ProcessOnMarker1071)"/></g><g id="ProcessOnG1073"><path id="ProcessOnPath1074" d="M1380.6666666666667 461.3950617283969L1441.4999999999998 461.3950617283969L1441.4999999999998 461.3950617283969L1487.097265355833 461.3950617283969" stroke="#323232" stroke-width="2.0" stroke-dasharray="none" fill="none" marker-end="url(#ProcessOnMarker1075)"/></g><g id="ProcessOnG1077" transform="matrix(1.0,0.0,0.0,1.0,1502.3333333333328,405.08950617284285)" opacity="1.0"><path id="ProcessOnPath1078" d="M0.0 0.0L194.6666666666672 0.0L194.6666666666672 112.61111111110813L0.0 112.61111111110813Z" stroke="#323232" stroke-width="2.0" stroke-dasharray="none" opacity="1.0" fill="#ffffff"/><g id="ProcessOnG1079" transform="matrix(1.0,0.0,0.0,1.0,10.0,15.680555555554065)"><text id="ProcessOnText1080" fill="#000000" font-size="13" x="86.3333333333336" y="13.325" font-family="微软雅黑" font-weight="normal" font-style="normal" text-decoration="none" family="微软雅黑" text-anchor="middle" size="13">转发邮箱至</text><text id="ProcessOnText1081" fill="#000000" font-size="13" x="86.3333333333336" y="29.575" font-family="微软雅黑" font-weight="normal" font-style="normal" text-decoration="none" family="微软雅黑" text-anchor="middle" size="13"></text><text id="ProcessOnText1082" fill="#000000" font-size="13" x="86.3333333333336" y="45.825" font-family="微软雅黑" font-weight="normal" font-style="normal" text-decoration="none" family="微软雅黑" text-anchor="middle" size="13">邮件名：</text><text id="ProcessOnText1083" fill="#000000" font-size="13" x="86.3333333333336" y="62.075" font-family="微软雅黑" font-weight="normal" font-style="normal" text-decoration="none" family="微软雅黑" text-anchor="middle" size="13">全国门锁接口包</text><text id="ProcessOnText1084" fill="#000000" font-size="13" x="86.3333333333336" y="78.325" font-family="微软雅黑" font-weight="normal" font-style="normal" text-decoration="none" family="微软雅黑" text-anchor="middle" size="13">lockproject@oyohtels.cn</text></g></g><g id="ProcessOnG1085"><path id="ProcessOnPath1086" d="M389.82304526748976 380.3333333333334L389.82304526748976 401.66666666666674L389.82304526748976 401.66666666666674L389.82304526748976 407.7639320225002" stroke="#323232" stroke-width="2.0" stroke-dasharray="none" fill="none" marker-end="url(#ProcessOnMarker1087)"/></g><g id="ProcessOnG1089" transform="matrix(1.0,0.0,0.0,1.0,280.5929764545828,621.9341563786023)" opacity="1.0"><path id="ProcessOnPath1090" d="M12.777777777777764 0.0L197.22222222222217 0.0C214.2592592592592 0.0 214.2592592592592 38.33333333333329 197.22222222222217 38.33333333333329L12.777777777777764 38.33333333333329C-4.259259259259255 38.33333333333329 -4.259259259259255 0.0 12.777777777777764 0.0Z" stroke="#66cc00" stroke-width="2.0" stroke-dasharray="none" opacity="1.0" fill="#80ff00"/><g id="ProcessOnG1091" transform="matrix(1.0,0.0,0.0,1.0,10.0,11.041666666666647)"><text id="ProcessOnText1092" fill="#000000" font-size="13" x="93.99999999999997" y="13.325" font-family="微软雅黑" font-weight="bold" font-style="normal" text-decoration="none" family="微软雅黑" text-anchor="middle" size="13">IOT 接口包评估</text></g></g><g id="ProcessOnG1093" transform="matrix(1.0,0.0,0.0,1.0,587.3150434385,667.2304526749001)" opacity="1.0"><path id="ProcessOnPath1094" d="M0.0 0.0L221.33333333333337 0.0L221.33333333333337 41.33333333333333L0.0 41.33333333333333Z" stroke="#323232" stroke-width="2.0" stroke-dasharray="none" opacity="1.0" fill="#ffffff"/><g id="ProcessOnG1095" transform="matrix(1.0,0.0,0.0,1.0,10.0,12.541666666666664)"><text id="ProcessOnText1096" fill="#000000" font-size="13" x="99.66666666666669" y="13.325" font-family="微软雅黑" font-weight="normal" font-style="normal" text-decoration="none" family="微软雅黑" text-anchor="middle" size="13">接口包可直接使用</text></g></g><g id="ProcessOnG1097" transform="matrix(1.0,0.0,0.0,1.0,587.3150434385,577.9465020576145)" opacity="1.0"><path id="ProcessOnPath1098" d="M0.0 0.0L221.33333333333337 0.0L221.33333333333337 41.33333333333333L0.0 41.33333333333333Z" stroke="#323232" stroke-width="2.0" stroke-dasharray="none" opacity="1.0" fill="#ffffff"/><g id="ProcessOnG1099" transform="matrix(1.0,0.0,0.0,1.0,10.0,12.541666666666664)"><text id="ProcessOnText1100" fill="#000000" font-size="13" x="99.66666666666669" y="13.325" font-family="微软雅黑" font-weight="normal" font-style="normal" text-decoration="none" family="微软雅黑" text-anchor="middle" size="13">接口包需要重新适配PMS</text></g></g><g id="ProcessOnG1101" transform="matrix(1.0,0.0,0.0,1.0,1063.3333333333314,605.0196616369492)" opacity="1.0"><path id="ProcessOnPath1102" d="M0.0 0.0L180.0000000000009 0.0L180.0000000000009 62.21079103795097L0.0 62.21079103795097Z" stroke="#323232" stroke-width="2.0" stroke-dasharray="none" opacity="1.0" fill="#ffffff"/><g id="ProcessOnG1103" transform="matrix(1.0,0.0,0.0,1.0,10.0,22.980395518975484)"><text id="ProcessOnText1104" fill="#000000" font-size="13" x="79.00000000000045" y="13.325" font-family="微软雅黑" font-weight="normal" font-style="normal" text-decoration="none" family="微软雅黑" text-anchor="middle" size="13">等待排期通知</text></g></g><g id="ProcessOnG1105"><path id="ProcessOnPath1106" d="M808.6483767718333 598.6131687242812L935.9908550525827 598.6131687242812L935.9908550525827 618.4787379972554L1048.0972653558322 618.4787379972554" stroke="#323232" stroke-width="2.0" stroke-dasharray="none" fill="none" marker-end="url(#ProcessOnMarker1107)"/></g><g id="ProcessOnG1109"><path id="ProcessOnPath1110" d="M808.6483767718333 687.8971193415667L935.9908550525827 687.8971193415667L935.9908550525827 650.4787379972554L1048.0972653558322 650.4787379972554" stroke="#323232" stroke-width="2.0" stroke-dasharray="none" fill="none" marker-end="url(#ProcessOnMarker1111)"/></g><g id="ProcessOnG1113"><path id="ProcessOnPath1114" d="M488.03209144796347 630.5872973959504L537.6735674432317 630.5872973959504L537.6735674432317 598.6131687242812L572.0789754610001 598.6131687242812" stroke="#323232" stroke-width="2.0" stroke-dasharray="none" fill="none" marker-end="url(#ProcessOnMarker1115)"/></g><g id="ProcessOnG1117"><path id="ProcessOnPath1118" d="M487.90716849734565 651.9761936197038L537.6111059679229 651.9761936197038L537.6111059679229 687.8971193415667L572.0789754610001 687.8971193415667" stroke="#323232" stroke-width="2.0" stroke-dasharray="none" fill="none" marker-end="url(#ProcessOnMarker1119)"/></g><g id="ProcessOnG1121" transform="matrix(1.0,0.0,0.0,1.0,284.5377857616749,821.4170604074624)" opacity="1.0"><path id="ProcessOnPath1122" d="M12.777777777777764 0.0L197.22222222222217 0.0C214.2592592592592 0.0 214.2592592592592 38.33333333333329 197.22222222222217 38.33333333333329L12.777777777777764 38.33333333333329C-4.259259259259255 38.33333333333329 -4.259259259259255 0.0 12.777777777777764 0.0Z" stroke="#66cc00" stroke-width="2.0" stroke-dasharray="none" opacity="1.0" fill="#80ff00"/><g id="ProcessOnG1123" transform="matrix(1.0,0.0,0.0,1.0,10.0,11.041666666666647)"><text id="ProcessOnText1124" fill="#000000" font-size="13" x="93.99999999999997" y="13.325" font-family="微软雅黑" font-weight="bold" font-style="normal" text-decoration="none" family="微软雅黑" text-anchor="middle" size="13">预约对接时间</text></g></g><g id="ProcessOnG1125"><path id="ProcessOnPath1126" d="M1599.6666666666665 517.700617283951L1599.6666666666665 570.3503086419755L378.0 570.3503086419755L378.0 607.7639320225002" stroke="#323232" stroke-width="2.0" stroke-dasharray="none" fill="none" marker-end="url(#ProcessOnMarker1127)"/><g id="ProcessOnG1129" transform="matrix(1.0,0.0,0.0,1.0,996.4513673220831,560.3503086419755)"><path id="ProcessOnPath1130" d="M0 0H112.0V20.0H0Z" fill="#fff" transform="matrix(1.0,0.0,0.0,1.0,-56.0,0.0)"/><text id="ProcessOnText1131" fill="#ff0000" font-size="16" x="0.0" y="16.4" font-family="微软雅黑" font-weight="bold" font-style="normal" text-decoration="none" family="微软雅黑" text-anchor="middle" size="16">接口包评估流程</text></g></g><g id="ProcessOnG1132" transform="matrix(1.0,0.0,0.0,1.0,284.4921451921345,985.763375426437)" opacity="1.0"><path id="ProcessOnPath1133" d="M12.777777777777764 0.0L197.22222222222217 0.0C214.2592592592592 0.0 214.2592592592592 38.33333333333329 197.22222222222217 38.33333333333329L12.777777777777764 38.33333333333329C-4.259259259259255 38.33333333333329 -4.259259259259255 0.0 12.777777777777764 0.0Z" stroke="#66cc00" stroke-width="2.0" stroke-dasharray="none" opacity="1.0" fill="#80ff00"/><g id="ProcessOnG1134" transform="matrix(1.0,0.0,0.0,1.0,10.0,11.041666666666647)"><text id="ProcessOnText1135" fill="#000000" font-size="13" x="93.99999999999997" y="13.325" font-family="微软雅黑" font-weight="bold" font-style="normal" text-decoration="none" family="微软雅黑" text-anchor="middle" size="13">实施部署</text></g></g><g id="ProcessOnG1136" transform="matrix(1.0,0.0,0.0,1.0,4.888888888888868,746.356652949249)" opacity="1.0"><path id="ProcessOnPath1137" d="M14.55555555555558 0.0L147.44444444444443 0.0C166.85185185185185 0.0 166.85185185185185 43.66666666666674 147.44444444444443 43.66666666666674L14.55555555555558 43.66666666666674C-4.85185185185186 43.66666666666674 -4.85185185185186 0.0 14.55555555555558 0.0Z" stroke="#66cc00" stroke-width="2.0" stroke-dasharray="none" opacity="1.0" fill="#80ff00"/><g id="ProcessOnG1138" transform="matrix(1.0,0.0,0.0,1.0,10.0,13.708333333333371)"><text id="ProcessOnText1139" fill="#000000" font-size="13" x="70.0" y="13.325" font-family="微软雅黑" font-weight="bold" font-style="normal" text-decoration="none" family="微软雅黑" text-anchor="middle" size="13">结束</text></g></g><g id="ProcessOnG1140" transform="matrix(1.0,0.0,0.0,1.0,589.4233021991768,819.9170604074623)" opacity="1.0"><path id="ProcessOnPath1141" d="M0.0 0.0L221.33333333333337 0.0L221.33333333333337 41.33333333333333L0.0 41.33333333333333Z" stroke="#323232" stroke-width="2.0" stroke-dasharray="none" opacity="1.0" fill="#ffffff"/><g id="ProcessOnG1142" transform="matrix(1.0,0.0,0.0,1.0,10.0,12.541666666666664)"><text id="ProcessOnText1143" fill="#000000" font-size="13" x="99.66666666666669" y="13.325" font-family="微软雅黑" font-weight="normal" font-style="normal" text-decoration="none" family="微软雅黑" text-anchor="middle" size="13">由OPS—叶晓丽负责排期</text></g></g><g id="ProcessOnG1144"><path id="ProcessOnPath1145" d="M810.7566355325101 840.5837270741289L873.2159296252397 840.5837270741289L873.2159296252397 840.379667733581L920.4391557404695 840.379667733581" stroke="#323232" stroke-width="2.0" stroke-dasharray="none" fill="none" marker-end="url(#ProcessOnMarker1146)"/></g><g id="ProcessOnG1148" transform="matrix(1.0,0.0,0.0,1.0,942.3236004898026,806.6084184321535)" opacity="1.0"><path id="ProcessOnPath1149" d="M0.0 0.0L210.3430661768641 0.0L210.3430661768641 67.95061728395092L0.0 67.95061728395092Z" stroke="#323232" stroke-width="2.0" stroke-dasharray="none" opacity="1.0" fill="#ffffff"/><g id="ProcessOnG1150" transform="matrix(1.0,0.0,0.0,1.0,10.0,17.72530864197546)"><text id="ProcessOnText1151" fill="#000000" font-size="13" x="94.17153308843206" y="13.325" font-family="微软雅黑" font-weight="normal" font-style="normal" text-decoration="none" family="微软雅黑" text-anchor="middle" size="13">分配任务工单</text><text id="ProcessOnText1152" fill="#000000" font-size="13" x="94.17153308843206" y="29.575" font-family="微软雅黑" font-weight="normal" font-style="normal" text-decoration="none" family="微软雅黑" text-anchor="middle" size="13">分配后邮件下达排期通知</text></g></g><g id="ProcessOnG1153"><path id="ProcessOnPath1154" d="M1153.333333333332 667.2304526749001L1153.333333333332 744.3237565411812L389.5377857616749 744.3237565411812L389.5377857616749 806.1809924299625" stroke="#323232" stroke-width="2.0" stroke-dasharray="none" fill="none" marker-end="url(#ProcessOnMarker1155)"/><g id="ProcessOnG1157" transform="matrix(1.0,0.0,0.0,1.0,779.0535935362532,734.3237565411812)"><path id="ProcessOnPath1158" d="M0 0H96.0V20.0H0Z" fill="#fff" transform="matrix(1.0,0.0,0.0,1.0,-48.0,0.0)"/><text id="ProcessOnText1159" fill="#ff0000" font-size="16" x="0.0" y="16.4" font-family="微软雅黑" font-weight="bold" font-style="normal" text-decoration="none" family="微软雅黑" text-anchor="middle" size="16">进入排期流程</text></g></g><g id="ProcessOnG1160"><path id="ProcessOnPath1161" d="M1047.4951335782348 874.5590357161044L1047.4951335782348 930.6941273819689L378.8410438850538 930.6941273819689L378.8410438850538 971.5931510703334" stroke="#323232" stroke-width="2.0" stroke-dasharray="none" fill="none" marker-end="url(#ProcessOnMarker1162)"/><g id="ProcessOnG1164" transform="matrix(1.0,0.0,0.0,1.0,720.7861227203944,920.6941273819689)"><path id="ProcessOnPath1165" d="M0 0H128.0V20.0H0Z" fill="#fff" transform="matrix(1.0,0.0,0.0,1.0,-64.0,0.0)"/><text id="ProcessOnText1166" fill="#ff0000" font-size="16" x="0.0" y="16.4" font-family="微软雅黑" font-weight="bold" font-style="normal" text-decoration="none" family="微软雅黑" text-anchor="middle" size="16">进入实施部署流程</text></g></g><g id="ProcessOnG1167"><path id="ProcessOnPath1168" d="M494.53778576167485 840.583727074129L541.9805439804259 840.583727074129L541.9805439804259 840.5837270741289L574.1872342216769 840.5837270741289" stroke="#323232" stroke-width="2.0" stroke-dasharray="none" fill="none" marker-end="url(#ProcessOnMarker1169)"/></g><g id="ProcessOnG1171"><path id="ProcessOnPath1172" d="M494.49214519213444 1004.9300420931038L542.9127392627339 1004.9300420931038L542.9127392627339 1005.1008230452699L576.0972653558335 1005.1008230452699" stroke="#323232" stroke-width="2.0" stroke-dasharray="none" fill="none" marker-end="url(#ProcessOnMarker1173)"/></g><g id="ProcessOnG1175" transform="matrix(1.0,0.0,0.0,1.0,596.0899688658429,982.8060706644787)" opacity="1.0"><path id="ProcessOnPath1176" d="M0.0 0.0L221.33333333333337 0.0L221.33333333333337 41.33333333333333L0.0 41.33333333333333Z" stroke="#323232" stroke-width="2.0" stroke-dasharray="none" opacity="1.0" fill="#ffffff"/><g id="ProcessOnG1177" transform="matrix(1.0,0.0,0.0,1.0,10.0,12.541666666666664)"><text id="ProcessOnText1178" fill="#000000" font-size="13" x="99.66666666666669" y="13.325" font-family="微软雅黑" font-weight="normal" font-style="normal" text-decoration="none" family="微软雅黑" text-anchor="middle" size="13">TR提前下载远程teamvivew软件</text></g></g><g id="ProcessOnG1179"><path id="ProcessOnPath1180" d="M817.4233021991763 1003.4727373311453L874.3783177662549 1003.4727373311453L874.3783177662549 1003.4727373311453L916.0972653558335 1003.4727373311453" stroke="#323232" stroke-width="2.0" stroke-dasharray="none" fill="none" marker-end="url(#ProcessOnMarker1181)"/></g><g id="ProcessOnG1183" transform="matrix(1.0,0.0,0.0,1.0,950.3236004898026,969.5616896116218)" opacity="1.0"><path id="ProcessOnPath1184" d="M0.0 0.0L210.3430661768641 0.0L210.3430661768641 67.95061728395092L0.0 67.95061728395092Z" stroke="#323232" stroke-width="2.0" stroke-dasharray="none" opacity="1.0" fill="#ffffff"/><g id="ProcessOnG1185" transform="matrix(1.0,0.0,0.0,1.0,10.0,25.85030864197546)"><text id="ProcessOnText1186" fill="#000000" font-size="13" x="94.17153308843206" y="13.325" font-family="微软雅黑" font-weight="normal" font-style="normal" text-decoration="none" family="微软雅黑" text-anchor="middle" size="13">技术支持接入远程，进行部署</text></g></g><g id="ProcessOnG1187" transform="matrix(1.0,0.0,0.0,1.0,284.28039604706635,1137.7633754264384)" opacity="1.0"><path id="ProcessOnPath1188" d="M12.777777777777764 0.0L197.22222222222217 0.0C214.2592592592592 0.0 214.2592592592592 38.33333333333329 197.22222222222217 38.33333333333329L12.777777777777764 38.33333333333329C-4.259259259259255 38.33333333333329 -4.259259259259255 0.0 12.777777777777764 0.0Z" stroke="#66cc00" stroke-width="2.0" stroke-dasharray="none" opacity="1.0" fill="#80ff00"/><g id="ProcessOnG1189" transform="matrix(1.0,0.0,0.0,1.0,10.0,11.041666666666647)"><text id="ProcessOnText1190" fill="#000000" font-size="13" x="93.99999999999997" y="13.325" font-family="微软雅黑" font-weight="bold" font-style="normal" text-decoration="none" family="微软雅黑" text-anchor="middle" size="13">op进行制卡/开门 测试</text></g></g><g id="ProcessOnG1191" transform="matrix(1.0,0.0,0.0,1.0,1268.114355392288,964.2283562782882)" opacity="1.0"><path id="ProcessOnPath1192" d="M0.0 0.0L241.88564460771204 0.0L241.88564460771204 68.1049770550452L0.0 68.1049770550452Z" stroke="#323232" stroke-width="2.0" stroke-dasharray="none" opacity="1.0" fill="#ffffff"/><g id="ProcessOnG1193" transform="matrix(1.0,0.0,0.0,1.0,10.0,25.9274885275226)"><text id="ProcessOnText1194" fill="#000000" font-size="13" x="109.94282230385602" y="13.325" font-family="微软雅黑" font-weight="normal" font-style="normal" text-decoration="none" family="微软雅黑" text-anchor="middle" size="13">部署完成后，技术支持会在线反馈</text></g></g><g id="ProcessOnG1195"><path id="ProcessOnPath1196" d="M1389.057177696144 1032.3333333333335L1389.057177696144 1085.6666666666667L398.0 1085.6666666666667L398.0 1123.7639320225003" stroke="#323232" stroke-width="2.0" stroke-dasharray="none" fill="none" marker-end="url(#ProcessOnMarker1197)"/><g id="ProcessOnG1199" transform="matrix(1.0,0.0,0.0,1.0,901.1466228368218,1075.6666666666667)"><path id="ProcessOnPath1200" d="M0 0H136.0V20.0H0Z" fill="#fff" transform="matrix(1.0,0.0,0.0,1.0,-68.0,0.0)"/><text id="ProcessOnText1201" fill="#ff0000" font-size="16" x="0.0" y="16.4" font-family="微软雅黑" font-weight="bold" font-style="normal" text-decoration="none" family="微软雅黑" text-anchor="middle" size="16">由OP进行实地验收</text></g></g><g id="ProcessOnG1202"><path id="ProcessOnPath1203" d="M494.2803960470663 1156.930042093105L538.1401980235331 1156.930042093105L538.1401980235331 1156.930042093105L566.7639320225002 1156.930042093105" stroke="#323232" stroke-width="2.0" stroke-dasharray="none" fill="none" marker-end="url(#ProcessOnMarker1204)"/></g><g id="ProcessOnG1206" transform="matrix(1.0,0.0,0.0,1.0,589.4233021991768,1136.3046992359805)" opacity="1.0"><path id="ProcessOnPath1207" d="M0.0 0.0L234.6666666666656 0.0L234.6666666666656 58.69530076401952L0.0 58.69530076401952Z" stroke="#323232" stroke-width="2.0" stroke-dasharray="none" opacity="1.0" fill="#ffffff"/><g id="ProcessOnG1208" transform="matrix(1.0,0.0,0.0,1.0,10.0,4.9726503820097605)"><text id="ProcessOnText1209" fill="#000000" font-size="13" x="0.0" y="13.325" font-family="微软雅黑" font-weight="normal" font-style="normal" text-decoration="none" family="微软雅黑" text-anchor="start" size="13">在pms系统商进行制卡后，进行开门</text><text id="ProcessOnText1210" fill="#000000" font-size="13" x="0.0" y="29.575" font-family="微软雅黑" font-weight="normal" font-style="normal" text-decoration="none" family="微软雅黑" text-anchor="start" size="13">，如有任何疑问，可实时反馈技术支</text><text id="ProcessOnText1211" fill="#000000" font-size="13" x="0.0" y="45.825" font-family="微软雅黑" font-weight="normal" font-style="normal" text-decoration="none" family="微软雅黑" text-anchor="start" size="13">持</text></g></g><g id="ProcessOnG1212"><path id="ProcessOnPath1213" d="M1160.6666666666667 1003.5369982535972L1210.6666666666667 1003.5369982535972L1210.6666666666667 1003.5369982535972L1245.430598689167 1003.5369982535972" stroke="#323232" stroke-width="2.0" stroke-dasharray="none" fill="none" marker-end="url(#ProcessOnMarker1214)"/></g><g id="ProcessOnG1216" transform="matrix(1.0,0.0,0.0,1.0,281.61372938039966,1267.0967087597683)" opacity="1.0"><path id="ProcessOnPath1217" d="M11.967763746744216 0.0L83.08517353952281 0.0C99.04219186851509 0.0 99.04219186851509 35.90329124023265 83.08517353952281 35.90329124023265L11.967763746744216 35.90329124023265C-3.9892545822480723 35.90329124023265 -3.9892545822480723 0.0 11.967763746744216 0.0Z" stroke="#66cc00" stroke-width="2.0" stroke-dasharray="none" opacity="1.0" fill="#80ff00"/><g id="ProcessOnG1218" transform="matrix(1.0,0.0,0.0,1.0,10.0,9.826645620116324)"><text id="ProcessOnText1219" fill="#000000" font-size="13" x="36.52646864313351" y="13.325" font-family="微软雅黑" font-weight="bold" font-style="normal" text-decoration="none" family="微软雅黑" text-anchor="middle" size="13">op测试成功</text></g></g><g id="ProcessOnG1220" transform="matrix(1.0,0.0,0.0,1.0,388.2803960470662,1268.4300420931027)" opacity="1.0"><path id="ProcessOnPath1221" d="M11.967763746744216 0.0L83.08517353952281 0.0C99.04219186851509 0.0 99.04219186851509 35.90329124023265 83.08517353952281 35.90329124023265L11.967763746744216 35.90329124023265C-3.9892545822480723 35.90329124023265 -3.9892545822480723 0.0 11.967763746744216 0.0Z" stroke="#66cc00" stroke-width="2.0" stroke-dasharray="none" opacity="1.0" fill="#80ff00"/><g id="ProcessOnG1222" transform="matrix(1.0,0.0,0.0,1.0,10.0,9.826645620116324)"><text id="ProcessOnText1223" fill="#000000" font-size="13" x="36.52646864313351" y="13.325" font-family="微软雅黑" font-weight="bold" font-style="normal" text-decoration="none" family="微软雅黑" text-anchor="middle" size="13">op测试失败</text></g></g><g id="ProcessOnG1224"><path id="ProcessOnPath1225" d="M330.0 1175.0L330.0 1215.0L330.0 1215.0L330.0 1239.7639320225003" stroke="#323232" stroke-width="2.0" stroke-dasharray="none" fill="none" marker-end="url(#ProcessOnMarker1226)"/></g><g id="ProcessOnG1228"><path id="ProcessOnPath1229" d="M283.2523080160651 1278.5927902808903L225.070598452477 1278.5927902808903L225.070598452477 768.1899862825824L182.12495686638866 768.1899862825824" stroke="#323232" stroke-width="2.0" stroke-dasharray="none" fill="none" marker-end="url(#ProcessOnMarker1230)"/></g><g id="ProcessOnG1232"><path id="ProcessOnPath1233" d="M436.6666666666667 1175.0L436.6666666666667 1213.0L436.6666666666667 1213.0L436.6666666666667 1235.7639320225003" stroke="#323232" stroke-width="2.0" stroke-dasharray="none" fill="none" marker-end="url(#ProcessOnMarker1234)"/></g><g id="ProcessOnG1236" transform="matrix(1.0,0.0,0.0,1.0,591.6455244213979,1261.6380325693133)" opacity="1.0"><path id="ProcessOnPath1237" d="M0.0 0.0L234.6666666666656 0.0L234.6666666666656 58.69530076401952L0.0 58.69530076401952Z" stroke="#323232" stroke-width="2.0" stroke-dasharray="none" opacity="1.0" fill="#ffffff"/><g id="ProcessOnG1238" transform="matrix(1.0,0.0,0.0,1.0,10.0,21.22265038200976)"><text id="ProcessOnText1239" fill="#000000" font-size="13" x="0.0" y="13.325" font-family="微软雅黑" font-weight="normal" font-style="normal" text-decoration="none" family="微软雅黑" text-anchor="start" size="13">技术支持给出反馈后，重新进入评估</text></g></g><g id="ProcessOnG1240"><path id="ProcessOnPath1241" d="M826.3121910880635 1290.985682951323L1548.3333333333323 1290.985682951323L1548.3333333333323 636.1250571559247L1258.569401310832 636.1250571559247" stroke="#323232" stroke-width="2.0" stroke-dasharray="none" fill="none" marker-end="url(#ProcessOnMarker1242)"/></g><g id="ProcessOnG1244"><path id="ProcessOnPath1245" d="M483.3333333333332 1286.381687713219L529.9999999999999 1286.381687713219L529.9999999999999 1286.381687713219L561.4305986891668 1286.381687713219" stroke="#323232" stroke-width="2.0" stroke-dasharray="none" fill="none" marker-end="url(#ProcessOnMarker1246)"/></g><g id="ProcessOnG1248" transform="matrix(1.0,0.0,0.0,1.0,17.333333333333268,273.0000000000001)" opacity="1.0"><path id="ProcessOnPath1249" d="M0.0 0.0L164.00000000000009 0.0L180.00000000000009 16.0L180.00000000000009 203.33333333333323L0.0 203.33333333333323L0.0 0.0Z" stroke="none" stroke-width="0.0" stroke-dasharray="none" opacity="1.0" fill="#ffffaa"/><path id="ProcessOnPath1250" d="M164.00000000000009 0.0L164.00000000000009 16.0L180.00000000000009 16.0Z" stroke="none" stroke-width="0.0" stroke-dasharray="none" opacity="1.0" fill="#cdcd78"/><path id="ProcessOnPath1251" d="M0.0 0.0L164.00000000000009 0.0L180.00000000000009 16.0L180.00000000000009 203.33333333333323L0.0 203.33333333333323L0.0 0.0Z" stroke="none" stroke-width="0.0" stroke-dasharray="none" opacity="1.0" fill="none"/><g id="ProcessOnG1252" transform="matrix(1.0,0.0,0.0,1.0,10.0,20.416666666666615)"><text id="ProcessOnText1253" fill="#000000" font-size="13" x="0.0" y="13.325" font-family="微软雅黑" font-weight="bold" font-style="normal" text-decoration="none" family="微软雅黑" text-anchor="start" size="13">对接必要条件</text><text id="ProcessOnText1254" fill="#000000" font-size="13" x="0.0" y="29.575" font-family="微软雅黑" font-weight="bold" font-style="normal" text-decoration="none" family="微软雅黑" text-anchor="start" size="13"></text><text id="ProcessOnText1255" fill="#000000" font-size="13" x="0.0" y="45.825" font-family="微软雅黑" font-weight="bold" font-style="normal" text-decoration="none" family="微软雅黑" text-anchor="start" size="13">1.完成系统环境评估流程 </text><text id="ProcessOnText1256" fill="#000000" font-size="13" x="0.0" y="62.075" font-family="微软雅黑" font-weight="bold" font-style="normal" text-decoration="none" family="微软雅黑" text-anchor="start" size="13"></text><text id="ProcessOnText1257" fill="#000000" font-size="13" x="0.0" y="78.325" font-family="微软雅黑" font-weight="bold" font-style="normal" text-decoration="none" family="微软雅黑" text-anchor="start" size="13">2.现有OYOPMS必须与制</text><text id="ProcessOnText1258" fill="#000000" font-size="13" x="0.0" y="94.575" font-family="微软雅黑" font-weight="bold" font-style="normal" text-decoration="none" family="微软雅黑" text-anchor="start" size="13">卡系统在同一台电脑上。</text><text id="ProcessOnText1259" fill="#000000" font-size="13" x="0.0" y="110.825" font-family="微软雅黑" font-weight="bold" font-style="normal" text-decoration="none" family="微软雅黑" text-anchor="start" size="13"></text><text id="ProcessOnText1260" fill="#000000" font-size="13" x="0.0" y="127.075" font-family="微软雅黑" font-weight="bold" font-style="normal" text-decoration="none" family="微软雅黑" text-anchor="start" size="13">3.必须向门锁商获取PMS对</text><text id="ProcessOnText1261" fill="#000000" font-size="13" x="0.0" y="143.325" font-family="微软雅黑" font-weight="bold" font-style="normal" text-decoration="none" family="微软雅黑" text-anchor="start" size="13">接接口包</text><text id="ProcessOnText1262" fill="#000000" font-size="13" x="0.0" y="159.575" font-family="微软雅黑" font-weight="bold" font-style="normal" text-decoration="none" family="微软雅黑" text-anchor="start" size="13"></text></g></g><g id="ProcessOnG1263" transform="matrix(1.0,0.0,0.0,1.0,8.280396047066187,42.5)" opacity="1.0"><path id="ProcessOnPath1264" d="M0.0 0.0L359.0 0.0L359.0 55.0L0.0 55.0Z" stroke="#323232" stroke-width="2.0" stroke-dasharray="none" opacity="1.0" fill="#ffffff"/><g id="ProcessOnG1265" transform="matrix(1.0,0.0,0.0,1.0,10.0,19.375)"><text id="ProcessOnText1266" fill="#000000" font-size="13" x="168.5" y="13.325" font-family="微软雅黑" font-weight="normal" font-style="normal" text-decoration="none" family="微软雅黑" text-anchor="middle" size="13">2.0 门锁接口包获取流程 —（初稿）</text></g></g></g></g></svg>